<svg xmlns="http://www.w3.org/2000/svg" width="1200" height="1200" viewBox="0 0 317.5 317.5"><g style="display:inline"><path d="M161.742.028a158.75 158.75 0 0 0-35.281 3.29A158.75 158.75 0 0 0 3.156 190.248l.674 3.16a158.75 158.75 0 0 0 188.79 120.437A158.75 158.75 0 0 0 314.015 125.67 158.75 158.75 0 0 0 161.742.028m43.363 96.24c6.792.034 14.009 1.5 20.991 4.239 29.12 11.418 57.189 32.564 70.021 60.079-10.57 25.22-41.997 54.94-63.635 63.73-21.638 8.79-54.007 8.001-59.286-15.486-5.279-23.487 29.67-36.476 51.185-45.461-21.453-9.523-56.47-22.17-50.922-44.77 3.813-15.538 16.702-22.404 31.646-22.33" style="display:inline;fill:#1f0027;fill-opacity:1;stroke-width:.605024;stroke-linecap:round;stroke-linejoin:round;paint-order:stroke fill markers" transform="translate(32.39 32.39)scale(.79597)"/><path d="M84.557 284.225C3.15 118.132 200.633 8.262 302.55 143.672 282.049 13.379 154.982-8.7 82.769 34.366 10.556 77.43-27.199 213.286 84.557 284.225" style="fill:#99478f;fill-opacity:1;stroke-width:.221379;stroke-linecap:round;stroke-linejoin:round;paint-order:stroke fill markers" transform="translate(32.39 32.39)scale(.79597)"/><path d="M206.744 163.143c-23.285 4.574-69.12 32.05-66.963 67.339 2.158 35.289 47.725 61.84 84.708 58.136-26.895 16.668-91.947 25.768-122.04-6.787-39.878-43.142-33.314-151.295 50.086-179.934-27.55 44.786 30.842 59.352 54.209 61.246" style="fill:#e2ca65;fill-opacity:1;stroke-width:.221379;stroke-linecap:round;stroke-linejoin:round;paint-order:stroke fill markers" transform="translate(32.39 32.39)scale(.79597)"/><path d="M152.826 234.036c76.946 26.727 120.337-19.603 149.696-57.682-2.734 40.187-28.04 83.895-61.205 96.519-23.973 9.125-72.524 6.655-88.491-38.837" style="fill:#9a73a5;fill-opacity:1;stroke-width:.221379;stroke-linecap:round;stroke-linejoin:round;paint-order:stroke fill markers" transform="translate(32.39 32.39)scale(.79597)"/></g><path d="M256.382 17.382c10.683-15.05 69.823 10.178 54.139 39.674-19.475 36.624-66.69 75.953-97.168 119.96-14.023 20.248-19.73 36.56-30.857 55.412-9.02 15.283-29.045 55.324-68.75 61.874-28.68 4.732-75.59 8.753-107.42-34.753 32.904-4.64 64.726-24.575 83.713-38.523 16.738-12.296 28.193-26.23 43.425-43.401 16.337-18.417 33.898-29.42 46.706-44.862 32.88-39.645 49.11-77.203 76.212-115.381" style="fill:#1f0027;fill-opacity:1;stroke-width:.793999;stroke-linecap:round;stroke-linejoin:round;paint-order:stroke fill markers" transform="translate(-5.675 -.951)scale(1.03033)"/><path d="M267.28 31.795c10.05-7.277 33.77 10.951 28.288 21.016-12.393 22.756-70.364 81.493-97.895 120.235-11.26 15.846-24.41 58.492-29.349 46.646-3.313-7.95-17.55-19.467-25.367-20.593-14.5-2.089 21.355-27.03 35.526-40.845C212.571 125.022 251.668 43.1 267.28 31.795" style="fill:#9a73a5;fill-opacity:1;stroke-width:.789494;stroke-linecap:round;stroke-linejoin:round;paint-order:stroke fill markers" transform="translate(-5.675 -.951)scale(1.03033)"/><path d="M132.755 210.052c20.143-5.638 29.2 15.384 22.59 35.528-6.611 20.144-50.07 58.391-117.5 26.066 71.139-14.668 74.768-55.956 94.91-61.594" style="fill:#99478f;fill-opacity:1;stroke-width:.910303;stroke-linecap:round;stroke-linejoin:round;paint-order:stroke fill markers" transform="translate(-5.675 -.951)scale(1.03033)"/><path d="M133.263 209.598c17.433-3.968 25.075 11.603 19.2 26.382-5.875 14.78-43.708 42.556-101.64 18.12 61.528-10.15 65.006-40.534 82.44-44.502" style="fill:#e2ca65;fill-opacity:1;stroke-width:.72595;stroke-linecap:round;stroke-linejoin:round;paint-order:stroke fill markers" transform="translate(-5.675 -.951)scale(1.03033)"/></svg>