<?xml version="1.0" encoding="UTF-8" standalone="no"?>
<!-- Created with Inkscape (http://www.inkscape.org/) -->

<svg
   width="1200"
   height="1200"
   viewBox="0 0 317.49999 317.5"
   version="1.1"
   id="svg6380"
   sodipodi:docname="logo-art.svg"
   inkscape:version="1.2.2 (732a01da63, 2022-12-09)"
   xmlns:inkscape="http://www.inkscape.org/namespaces/inkscape"
   xmlns:sodipodi="http://sodipodi.sourceforge.net/DTD/sodipodi-0.dtd"
   xmlns="http://www.w3.org/2000/svg"
   xmlns:svg="http://www.w3.org/2000/svg"
   xmlns:rdf="http://www.w3.org/1999/02/22-rdf-syntax-ns#"
   xmlns:cc="http://creativecommons.org/ns#"
   xmlns:dc="http://purl.org/dc/elements/1.1/">
  <title
     id="title23359">Ematea Art Logo</title>
  <sodipodi:namedview
     id="namedview6382"
     pagecolor="#ffffff"
     bordercolor="#666666"
     borderopacity="1.0"
     inkscape:showpageshadow="2"
     inkscape:pageopacity="0.0"
     inkscape:pagecheckerboard="0"
     inkscape:deskcolor="#d1d1d1"
     inkscape:document-units="mm"
     showgrid="false"
     inkscape:zoom="0.27622351"
     inkscape:cx="352.97502"
     inkscape:cy="539.41824"
     inkscape:window-width="1920"
     inkscape:window-height="1017"
     inkscape:window-x="1912"
     inkscape:window-y="-8"
     inkscape:window-maximized="1"
     inkscape:current-layer="layer3" />
  <defs
     id="defs6377" />
  <g
     inkscape:groupmode="layer"
     id="layer3"
     inkscape:label="logo"
     style="display:inline">
    <g
       id="g23357"
       inkscape:label="logo"
       transform="matrix(0.795973,0,0,0.795973,32.389287,32.389288)">
      <path
         id="path10423"
         style="display:inline;fill:#1f0027;fill-opacity:1;stroke-width:0.605024;stroke-linecap:round;stroke-linejoin:round;paint-order:stroke fill markers"
         inkscape:label="circle"
         d="M 161.74159,0.028184 A 158.75016,158.74996 0 0 0 126.46079,3.318475 158.75016,158.74996 0 0 0 3.156123,190.24767 l 0.673399,3.16088 A 158.75016,158.74996 0 0 0 192.61963,313.84488 158.75016,158.74996 0 0 0 314.01516,125.67006 158.75016,158.74996 0 0 0 161.74159,0.028184 Z m 43.363,96.240545 c 6.79243,0.03337 14.00934,1.500209 20.99164,4.238041 29.11986,11.4182 57.18856,32.56451 70.02089,60.07886 -10.57018,25.22099 -41.99688,54.94008 -63.63513,63.73011 -21.63824,8.79001 -54.00736,8.00136 -59.28602,-15.48583 -5.27864,-23.48721 29.67051,-36.47555 51.18546,-45.46126 -21.45359,-9.52269 -56.47033,-22.16942 -50.92288,-44.76999 3.8139,-15.53789 16.70269,-22.403354 31.64604,-22.329931 z" />
      <path
         style="fill:#99478f;fill-opacity:1;stroke-width:0.221379;stroke-linecap:round;stroke-linejoin:round;paint-order:stroke fill markers"
         d="M 84.55717,284.22453 C 3.150113,118.13219 200.63349,8.2623562 302.54863,143.67167 282.04848,13.379182 154.98181,-8.699141 82.769002,34.36582 10.55619,77.43078 -27.198804,213.28597 84.55717,284.22453 Z"
         id="path6940"
         sodipodi:nodetypes="cczc"
         inkscape:label="top" />
      <path
         style="fill:#e2ca65;fill-opacity:1;stroke-width:0.221379;stroke-linecap:round;stroke-linejoin:round;paint-order:stroke fill markers"
         d="m 206.74397,163.14326 c -23.28479,4.57389 -69.12013,32.0492 -66.96256,67.33825 2.15758,35.28902 47.72496,61.83954 84.70715,58.13638 -26.8944,16.66824 -91.94649,25.76817 -122.0397,-6.78725 -39.878354,-43.1412 -33.314279,-151.29468 50.08571,-179.93341 -27.54935,44.78622 30.84253,59.35143 54.2094,61.24603 z"
         id="path8463"
         sodipodi:nodetypes="czcscc"
         inkscape:label="center" />
      <path
         style="fill:#9a73a5;fill-opacity:1;stroke-width:0.221379;stroke-linecap:round;stroke-linejoin:round;paint-order:stroke fill markers"
         d="m 152.826,234.03617 c 76.94583,26.72652 120.33733,-19.60321 149.69561,-57.68179 -2.73397,40.18653 -28.03967,83.89475 -61.20414,96.51839 -23.97303,9.12505 -72.52481,6.65523 -88.49147,-38.8366 z"
         id="path9191"
         sodipodi:nodetypes="ccsc"
         inkscape:label="bottom" />
    </g>
  </g>
  <g
     inkscape:groupmode="layer"
     id="layer7"
     inkscape:label="brush">
    <g
       id="g29052"
       inkscape:label="brush"
       transform="matrix(1.0303313,0,0,1.0303313,-5.6746648,-0.95118347)">
      <path
         style="fill:#1f0027;fill-opacity:1;stroke-width:0.793999;stroke-linecap:round;stroke-linejoin:round;paint-order:stroke fill markers"
         d="m 256.38182,17.381747 c 10.6832,-15.049232 69.82319,10.17868 54.13899,39.673984 -19.47484,36.62388 -66.68977,75.952949 -97.16757,119.959879 -14.02304,20.2479 -19.73048,36.56053 -30.85693,55.41266 -9.01981,15.28274 -29.04553,55.32323 -68.75049,61.87407 -28.680699,4.73197 -75.590566,8.75304 -107.4205434,-34.75351 32.9043904,-4.63924 64.7267454,-24.5744 83.7135204,-38.52273 16.737813,-12.29617 28.193183,-26.22948 43.425313,-43.40125 16.33659,-18.41687 33.8983,-29.41956 46.70563,-44.86211 32.8794,-39.644589 49.11029,-77.203172 76.21208,-115.380993 z"
         id="path28243"
         sodipodi:nodetypes="ssssscssss"
         inkscape:label="outline" />
      <path
         style="fill:#9a73a5;fill-opacity:1;stroke-width:0.789494;stroke-linecap:round;stroke-linejoin:round;paint-order:stroke fill markers"
         d="m 267.27993,31.795326 c 10.05046,-7.277756 33.7695,10.950687 28.288,21.016036 -12.39262,22.755781 -70.36382,81.492178 -97.8949,120.234628 -11.26067,15.84628 -24.41086,58.49166 -29.34879,46.6457 -3.31349,-7.94905 -17.55065,-19.46626 -25.36755,-20.59251 -14.49894,-2.08901 21.3552,-27.02936 35.52661,-40.84501 34.08798,-33.23223 73.1848,-115.153994 88.79663,-126.458844 z"
         id="path23846"
         sodipodi:nodetypes="sssssss"
         inkscape:label="handle" />
      <path
         style="fill:#99478f;fill-opacity:1;stroke-width:0.910303;stroke-linecap:round;stroke-linejoin:round;paint-order:stroke fill markers"
         d="m 132.75532,210.05193 c 20.14231,-5.6381 29.19979,15.38372 22.589,35.52812 -6.61078,20.14441 -50.07004,58.39141 -117.499253,26.06638 71.138643,-14.66825 74.767943,-55.9564 94.910253,-61.5945 z"
         id="path23848"
         sodipodi:nodetypes="zzcz"
         inkscape:label="brush-bottom" />
      <path
         style="fill:#e2ca65;fill-opacity:1;stroke-width:0.72595;stroke-linecap:round;stroke-linejoin:round;paint-order:stroke fill markers"
         d="m 133.26273,209.59814 c 17.4334,-3.9678 25.07537,11.60268 19.2003,26.38226 -5.87503,14.77959 -43.70818,42.55554 -101.639907,18.11936 61.527427,-10.14995 65.006157,-40.5338 82.439607,-44.50162 z"
         id="path23848-7"
         sodipodi:nodetypes="zzcz"
         inkscape:label="brush-top" />
    </g>
  </g>
  <metadata
     id="metadata18827">
    <rdf:RDF>
      <cc:Work
         rdf:about="">
        <dc:description>Tri-colored circular letter E, with paintbrush</dc:description>
        <dc:title>Ematea Art Logo</dc:title>
      </cc:Work>
    </rdf:RDF>
  </metadata>
</svg>
